<svg width="16" height="16" viewBox="0 0 16 16" fill="none" xmlns="http://www.w3.org/2000/svg">
<path d="M9.10001 2.59998C9.10001 2.04685 8.65313 1.59998 8.10001 1.59998C7.54688 1.59998 7.10001 2.04685 7.10001 2.59998V7.09998H2.60001C2.04688 7.09998 1.60001 7.54685 1.60001 8.09998C1.60001 8.6531 2.04688 9.09998 2.60001 9.09998H7.10001V13.6C7.10001 14.1531 7.54688 14.6 8.10001 14.6C8.65313 14.6 9.10001 14.1531 9.10001 13.6V9.09998H13.6C14.1531 9.09998 14.6 8.6531 14.6 8.09998C14.6 7.54685 14.1531 7.09998 13.6 7.09998H9.10001V2.59998Z" fill="white"/>
</svg>
