<svg width="18" height="21" viewBox="0 0 18 21" fill="none" xmlns="http://www.w3.org/2000/svg">
<path d="M5.28125 1.19141L5 1.75H1.25C0.558594 1.75 0 2.30859 0 3C0 3.69141 0.558594 4.25 1.25 4.25H16.25C16.9414 4.25 17.5 3.69141 17.5 3C17.5 2.30859 16.9414 1.75 16.25 1.75H12.5L12.2188 1.19141C12.0078 0.765625 11.5742 0.5 11.1016 0.5H6.39844C5.92578 0.5 5.49219 0.765625 5.28125 1.19141ZM16.25 5.5H1.25L2.07812 18.7422C2.14062 19.7305 2.96094 20.5 3.94922 20.5H13.5508C14.5391 20.5 15.3594 19.7305 15.4219 18.7422L16.25 5.5Z" fill="white"/>
</svg>
